<svg width="24" height="24" viewBox="0 0 24 24" fill="none" xmlns="http://www.w3.org/2000/svg">
<path d="M22.6667 3.99998H21.3333V2.66665C21.3333 1.93331 20.7333 1.33331 20 1.33331H1.33333C0.6 1.33331 0 1.93331 0 2.66665V18.6666C0 19.4 0.6 20 1.33333 20H2.66667V21.3333C2.66667 22.0666 3.26667 22.6666 4 22.6666H22.6667C23.4 22.6666 24 22.0666 24 21.3333V5.33331C24 4.59998 23.4 3.99998 22.6667 3.99998ZM2.66667 5.33331V18.6666H1.336C1.33467 18.6653 1.33467 18.6653 1.33333 18.664V2.66931C1.33467 2.66798 1.33467 2.66798 1.336 2.66665H19.9973C19.9987 2.66798 19.9987 2.66798 20 2.66931V3.99998H4C3.26667 3.99998 2.66667 4.59998 2.66667 5.33331ZM22.6667 21.3306C22.6653 21.332 22.6653 21.332 22.664 21.3333H4.00267C4.00133 21.332 4.00133 21.332 4 21.3306V5.33598C4.00133 5.33465 4.00133 5.33465 4.00267 5.33331H22.664C22.6653 5.33465 22.6653 5.33465 22.6667 5.33598V21.3306Z" fill="black"/>
<path d="M20 8.66669C20 9.77069 19.104 10.6667 18 10.6667C16.896 10.6667 16 9.77069 16 8.66669C16 7.56269 16.896 6.66669 18 6.66669C19.104 6.66669 20 7.56269 20 8.66669Z" fill="black"/>
<path d="M21.3335 20H5.3335V17.3333L10.0002 9.33331L15.3335 16H16.6668L21.3335 12V20Z" fill="black"/>
</svg>
